<?xml version="1.0" encoding="utf-8"?>
<!-- Generator: Adobe Illustrator 25.1.0, SVG Export Plug-In . SVG Version: 6.00 Build 0)  -->
<svg version="1.1" id="Layer_1" xmlns="http://www.w3.org/2000/svg" xmlns:xlink="http://www.w3.org/1999/xlink" x="0px" y="0px"
	 viewBox="0 0 500 500" style="enable-background:new 0 0 500 500;" xml:space="preserve">
<style type="text/css">
	.st0{fill:#FFFFFF;}
	.st1{fill:#3C4B5A;}
	.st2{fill:#B12F35;}
	.st3{fill-rule:evenodd;clip-rule:evenodd;fill:#3C4B5A;}
	.st4{fill-rule:evenodd;clip-rule:evenodd;fill:#B12F35;}
	.st5{fill:none;}
</style>
<path class="st0" d="M402.64,500H97.36C43.59,500,0,456.41,0,402.64V97.36C0,43.59,43.59,0,97.36,0h305.28
	C456.41,0,500,43.59,500,97.36v305.28C500,456.41,456.41,500,402.64,500z"/>
<g>
	<g>
		<path class="st1" d="M157.42,99.44c1.28-0.69,2.5-1.58,3.69-2.57c34.08-28.36,73.08-39.24,116.84-32.09
			c25.86,4.22,48.59,15.44,68.48,32.47c0.71,0.61,1.44,1.14,2.18,1.6l15.41-15.64c-0.77-1.16-1.7-2.28-2.88-3.29
			c-30.89-26.32-66.67-39.57-101.33-40.04c-36.54,0.09-63.91,7.31-90.33,23.16c-8.55,5.12-16.35,11.52-24.33,17.55
			c-1.41,1.06-2.45,2.3-3.16,3.66L157.42,99.44z"/>
		<path class="st1" d="M187.89,129.46c0.88-0.45,1.76-0.96,2.61-1.63c28.93-22.57,60.9-28.33,95.81-16.97
			c11.48,3.74,21.69,9.9,31.02,17.56c0.41,0.34,0.83,0.63,1.25,0.9l15.51-15.74c-0.89-1.31-2.11-2.55-3.73-3.84
			c-27.33-21.54-58.24-30.46-92.83-26.12c-23.11,2.9-43.55,12.07-61.59,26.72c-1.46,1.19-2.63,2.5-3.45,3.93L187.89,129.46z"/>
		<path class="st1" d="M218.45,159.59c0.64-0.34,1.29-0.69,1.93-1.13c20.59-14.28,45.65-14.25,66.4,0.09
			c0.63,0.43,1.27,0.78,1.91,1.11l15.24-15.47c-0.95-1.51-2.23-2.92-3.91-4.13c-13.85-9.96-29.37-14.83-46-15.05
			c-17.4,0.2-32.93,5-46.82,14.94c-1.82,1.31-3.19,2.82-4.18,4.44L218.45,159.59z"/>
		<path class="st2" d="M254.12,194.74l15-15.23c-2.32-6.44-8.42-11.07-15.64-11.04c-7.06,0.03-12.95,4.31-15.4,10.47L254.12,194.74z
			"/>
	</g>
	<path id="path2" class="st3" d="M54.72,76.88v78.64l146.04,143.23l64.59-2.81h44.94L447.9,155.52V76.88h-5.62L254.12,267.86
		L60.34,76.88H54.72z"/>
	<path id="path8" class="st3" d="M116.51,292.57l-32.58,32.02l0.56,14.04v10.67l32.02,32.02h15.17v-0.56l-42.69-44.09l42.69-43.53
		v-0.56H116.51z"/>
	<g id="g17" transform="translate(-1.08348e-4,0.048)">
		<path id="path15" class="st4" d="M84.51,318.9L84.51,318.9l-0.02,15.18h6.18l41-41.57v8.03l-35.39,36.06l35.39,36.79v7.86
			l-41-42.13h-7.3c-1.12,0-2.25-1.12-2.25-2.25H80v-18.54h1.12c0-0.56,0.56-1.12,1.69-1.12c1.12,0,1.69,0.56,1.69,1.12L84.51,318.9z
			"/>
	</g>
	<g id="path839" transform="matrix(1.03281,0,0,1.0326797,24.31099,-21.921569)">
		<rect id="rect12" x="38.15" y="304.54" class="st1" width="16.86" height="85.94"/>
	</g>
	<rect id="rect23" x="176.61" y="321.22" class="st3" width="13.48" height="60.1"/>
	<path id="path25" class="st1" d="M246.81,350.68c0-6.12-1.38-10.87-4.14-14.27c-2.76-3.4-7.19-5.1-13.31-5.1
		c-1.28,0-2.62,0.06-4.02,0.17c-1.4,0.11-2.78,0.36-4.14,0.74v33.87c1.21,0.83,2.81,1.6,4.81,2.32c2,0.72,4.14,1.08,6.4,1.08
		c4.99,0,8.63-1.7,10.93-5.1C245.66,360.99,246.81,356.42,246.81,350.68L246.81,350.68z M260.86,350.46c0,4.53-0.59,8.68-1.76,12.46
		c-1.17,3.78-2.85,7.02-5.04,9.74c-2.19,2.72-4.93,4.83-8.21,6.34c-3.29,1.51-7.01,2.27-11.16,2.27c-2.8,0-5.36-0.34-7.7-1.02
		c-2.34-0.68-4.27-1.44-5.78-2.27v23H207.5V322.7c2.79-0.76,6.23-1.47,10.31-2.15c4.08-0.68,8.38-1.02,12.92-1.02
		c4.68,0,8.87,0.72,12.58,2.15c3.7,1.44,6.85,3.49,9.46,6.17c2.61,2.68,4.61,5.93,6,9.74C260.16,341.41,260.86,345.7,260.86,350.46
		L260.86,350.46z"/>
	<path id="path27" class="st1" d="M314.78,350.68c0-6.12-1.38-10.87-4.14-14.27c-2.76-3.4-7.19-5.1-13.31-5.1
		c-1.28,0-2.63,0.06-4.02,0.17c-1.4,0.11-2.78,0.36-4.14,0.74v33.87c1.21,0.83,2.81,1.6,4.81,2.32c2,0.72,4.14,1.08,6.4,1.08
		c4.98,0,8.63-1.7,10.93-5.1C313.63,360.99,314.78,356.42,314.78,350.68z M328.83,350.46c0,4.53-0.59,8.68-1.76,12.46
		c-1.17,3.78-2.85,7.02-5.04,9.74c-2.19,2.72-4.93,4.83-8.21,6.34c-3.29,1.51-7,2.27-11.16,2.27c-2.79,0-5.36-0.34-7.7-1.02
		c-2.34-0.68-4.27-1.44-5.78-2.27v23h-13.71V322.7c2.79-0.76,6.23-1.47,10.31-2.15c4.08-0.68,8.38-1.02,12.92-1.02
		c4.68,0,8.88,0.72,12.58,2.15c3.7,1.44,6.85,3.49,9.46,6.17c2.61,2.68,4.61,5.93,6,9.74C328.13,341.41,328.83,345.7,328.83,350.46
		L328.83,350.46z"/>
	<path id="path29" class="st1" d="M339.5,350.43c0-5.22,0.77-9.8,2.32-13.74c1.54-3.94,3.6-7.21,6.16-9.82
		c2.56-2.61,5.5-4.58,8.82-5.91c3.32-1.33,6.71-1.99,10.17-1.99c8.14,0,14.49,2.54,19.05,7.61c4.56,5.07,6.84,12.64,6.84,22.71
		c0,0.76-0.02,1.61-0.06,2.56c-0.04,0.95-0.09,1.8-0.17,2.56h-39c0.38,4.77,2.05,8.46,5.03,11.07c2.98,2.61,7.29,3.92,12.94,3.92
		c3.32,0,6.35-0.3,9.1-0.91c2.75-0.61,4.92-1.25,6.5-1.93l1.81,11.24c-0.75,0.38-1.79,0.78-3.11,1.19
		c-1.32,0.42-2.83,0.79-4.52,1.14c-1.7,0.34-3.52,0.62-5.48,0.85c-1.96,0.23-3.96,0.34-5.99,0.34c-5.2,0-9.72-0.78-13.57-2.33
		c-3.84-1.55-7.01-3.71-9.5-6.47c-2.49-2.76-4.33-6.02-5.54-9.77C340.1,359,339.5,354.89,339.5,350.43z M379.18,344.29
		c0-1.89-0.26-3.69-0.79-5.39c-0.53-1.7-1.3-3.18-2.32-4.43c-1.02-1.25-2.26-2.23-3.73-2.95c-1.47-0.72-3.22-1.08-5.26-1.08
		c-2.11,0-3.96,0.4-5.54,1.19c-1.58,0.79-2.92,1.84-4.01,3.12c-1.09,1.29-1.94,2.76-2.54,4.43c-0.6,1.67-1.02,3.37-1.24,5.11H379.18
		z"/>
	<path id="path31" class="st1" d="M441.04,334.29c-1.13-0.38-2.69-0.78-4.68-1.19s-4.3-0.62-6.93-0.62c-1.5,0-3.1,0.15-4.79,0.45
		c-1.69,0.3-2.87,0.57-3.55,0.79v47.6h-13.64v-56.57c2.63-0.98,5.92-1.91,9.86-2.78c3.94-0.87,8.32-1.31,13.13-1.31
		c0.9,0,1.95,0.06,3.16,0.17c1.2,0.11,2.4,0.26,3.61,0.45c1.2,0.19,2.37,0.42,3.49,0.68c1.13,0.26,2.03,0.51,2.7,0.74L441.04,334.29
		z"/>
	<path id="path35" class="st4" d="M183.35,295.94h56.73v-36.51L54.72,76.88h33.7l165.7,162.89L414.2,76.88h33.7L268.16,259.43v47.74
		c0,2.81-2.81,5.62-5.62,5.62h-79.2c-6.74,0-7.86-5.62-7.86-8.43C175.48,301.56,176.61,295.94,183.35,295.94z"/>
	<rect id="rect12-6" x="145.15" y="292.57" class="st1" width="13.48" height="88.75"/>
	<path class="st5" d="M72.41,76.88c0,0,159.9,0,357.5,0"/>
	<g>
		<path class="st2" d="M108.19,460.13h-7.62l-6.78-23.59l-6.84,23.59h-7.57l-10.18-34.96h7.41l6.68,24.11l7.04-24.11h6.84
			l7.04,24.11l6.68-24.11h7.46L108.19,460.13z"/>
		<path class="st2" d="M264.87,460.13l-11.53-12.84h-3.71v12.84h-7.1v-34.96h16.75c7.51,0,12.52,4.44,12.52,11.06
			c0,5.84-3.91,10.02-10.02,10.91l11.74,12.99H264.87z M259.29,440.88c3.29,0,5.48-1.88,5.48-4.65c0-2.77-2.19-4.64-5.48-4.64h-9.65
			v9.29H259.29z"/>
		<path class="st2" d="M412.27,431.59v28.54h-7.1v-28.54h-11.64v-6.42h30.37v6.42H412.27z"/>
	</g>
</g>
</svg>
